<?xml version="1.0" encoding="UTF-8"?>
<svg width="20px" height="13px" viewBox="0 0 20 13" version="1.1" xmlns="http://www.w3.org/2000/svg" xmlns:xlink="http://www.w3.org/1999/xlink">
    <!-- Generator: Sketch 49 (51002) - http://www.bohemiancoding.com/sketch -->
    <title>icon_vpn</title>
    <desc>Created with Sketch.</desc>
    <defs></defs>
    <g id="Final" stroke="none" stroke-width="1" fill="none" fill-rule="evenodd">
        <g id="addons-banner-940x188-v3a-copy-16" transform="translate(-34.000000, -147.000000)">
            <g id="icon_vpn" transform="translate(34.000000, 147.000000)">
                <path d="M2,0.5 C1.17157288,0.5 0.5,1.17157288 0.5,2 L0.5,11 C0.5,11.8284271 1.17157288,12.5 2,12.5 L18,12.5 C18.8284271,12.5 19.5,11.8284271 19.5,11 L19.5,2 C19.5,1.17157288 18.8284271,0.5 18,0.5 L2,0.5 Z" id="rectangle" stroke="#FFFFFF"></path>
                <path d="M4.6275,9 L2.8075,4.1 L3.8085,4.1 L4.9145,7.229 C4.98450035,7.47166788 5.04516641,7.67933247 5.0965,7.852 L5.2785,7.229 L6.3845,4.1 L7.3855,4.1 L5.5655,9 L4.6275,9 Z M7.8055,9 L7.8055,4.1 L10.0315,4.1 C10.5961695,4.1 11.0429984,4.23883194 11.372,4.5165 C11.7010016,4.79416806 11.8655,5.18733079 11.8655,5.696 C11.8655,6.20466921 11.7010016,6.59783195 11.372,6.8755 C11.0429984,7.15316806 10.5961695,7.292 10.0315,7.292 L8.7295,7.292 L8.7295,9 L7.8055,9 Z M8.7295,4.926 L8.7295,6.466 L10.0035,6.466 C10.3161682,6.466 10.5506659,6.39716735 10.707,6.2595 C10.8633341,6.12183264 10.9415,5.93400119 10.9415,5.696 C10.9415,5.45799881 10.8633341,5.27016736 10.707,5.1325 C10.5506659,4.99483264 10.3161682,4.926 10.0035,4.926 L8.7295,4.926 Z M12.6075,9 L12.6075,4.1 L13.5455,4.1 L15.5895,7.215 C15.7015006,7.4016676 15.7714999,7.52999965 15.7995,7.6 L15.7995,4.1 L16.6955,4.1 L16.6955,9 L15.7575,9 L13.7135,5.864 C13.6014994,5.6773324 13.5315001,5.54900035 13.5035,5.479 L13.5035,9 L12.6075,9 Z" id="VPN" fill="#FFFFFF"></path>
            </g>
        </g>
    </g>
</svg>