<?xml version="1.0" encoding="UTF-8"?>
<svg width="21px" height="15px" viewBox="0 0 21 15" version="1.1" xmlns="http://www.w3.org/2000/svg" xmlns:xlink="http://www.w3.org/1999/xlink">
    <!-- Generator: Sketch 49 (51002) - http://www.bohemiancoding.com/sketch -->
    <title>icon_battery</title>
    <desc>Created with Sketch.</desc>
    <defs></defs>
    <g id="Final" stroke="none" stroke-width="1" fill="none" fill-rule="evenodd">
        <g id="addons-banner-940x188-v3a-copy-16" transform="translate(-34.000000, -124.000000)">
            <g id="icon_battery" transform="translate(35.000000, 125.000000)">
                <g id="Page-1">
                    <path d="M16.6969697,9.37209302 L18.4242424,9.37209302 C18.7420606,9.37209302 19,9.1012093 19,8.76744186 L19,4.23255814 C19,3.8987907 18.7420606,3.62790698 18.4242424,3.62790698 L16.6969697,3.62790698 L16.6969697,1.20930233 C16.6969697,0.541465116 16.1813788,0 15.5454545,0 L1.15151515,0 C0.515590909,0 0,0.541465116 0,1.20930233 L0,11.7906977 C0,12.4585349 0.515590909,13 1.15151515,13 L15.5454545,13 C16.1813788,13 16.6969697,12.4585349 16.6969697,11.7906977 L16.6969697,9.37209302 Z" id="Stroke-1" stroke="#FFFFFF" stroke-linecap="round" stroke-linejoin="round"></path>
                    <path d="M16.6829268,2.88888889 L16.6829268,10.1111111" id="Stroke-3" stroke="#FFFFFF"></path>
                    <path d="M8.76984853,6.17713941 L9.91715099,6.17713941 C10.1624268,6.17713941 10.2870069,6.49949055 10.1160907,6.69223346 L7.16417999,10.016214 C6.94165603,10.2669316 6.57207758,9.97584424 6.71857715,9.66533085 L7.93746463,7.08773585 L6.76574557,7.08773585 C6.52407678,7.08773585 6.39810935,6.77358008 6.56153405,6.57871244 L9.57642852,2.98974833 C9.79257087,2.73235306 10.1696408,3.01251324 10.0306327,3.32697254 L8.76984853,6.17713941 Z" id="Fill-5" fill="#FFFFFF"></path>
                </g>
            </g>
        </g>
    </g>
</svg>