<svg xmlns="http://www.w3.org/2000/svg" width="17" height="16" viewBox="0 0 17 16">
    <path fill="#000" fill-rule="nonzero" d="M17 9.809V16h-3.644v-5.776c0-1.45-.527-2.441-1.846-2.441-1.007 0-1.605.667-1.87 1.312-.096.231-.12.552-.12.875V16H5.875s.049-9.783 0-10.796H9.52v1.53c-.007.012-.018.024-.024.035h.024v-.035C10.004 6 10.868 4.95 12.805 4.95 15.202 4.95 17 6.493 17 9.81zM2.062 0C.816 0 0 .806 0 1.865c0 1.037.792 1.866 2.015 1.866h.023C3.31 3.73 4.1 2.9 4.1 1.865 4.076.806 3.31 0 2.062 0zM.217 16H3.86V5.204H.217V16z"/>
</svg>
