<svg xmlns="http://www.w3.org/2000/svg" width="18" height="14" viewBox="0 0 18 14">
    <path fill="#000" fill-rule="nonzero" d="M18 1.657a7.628 7.628 0 0 1-2.121.556A3.576 3.576 0 0 0 17.503.258a7.597 7.597 0 0 1-2.345.858A3.768 3.768 0 0 0 12.462 0c-2.04 0-3.693 1.583-3.693 3.534 0 .277.032.547.096.806-3.07-.148-5.79-1.555-7.612-3.693-.318.521-.5 1.129-.5 1.777 0 1.226.652 2.308 1.642 2.941a3.793 3.793 0 0 1-1.672-.442v.045c0 1.712 1.273 3.14 2.962 3.465a3.835 3.835 0 0 1-1.667.061c.47 1.404 1.833 2.426 3.45 2.455A7.623 7.623 0 0 1 .88 12.46c-.297 0-.592-.016-.88-.05A10.789 10.789 0 0 0 5.66 14c6.793 0 10.508-5.385 10.508-10.056 0-.153-.004-.306-.011-.457A7.319 7.319 0 0 0 18 1.657z"/>
</svg>
