<svg xmlns="http://www.w3.org/2000/svg" width="20" height="14" viewBox="0 0 20 14">
    <g fill="none" fill-rule="nonzero">
        <path fill="#000" d="M19.55 2.188a2.501 2.501 0 0 0-1.76-1.76C16.23 0 9.98 0 9.98 0S3.732 0 2.17.411C1.332.641.641 1.332.411 2.187 0 3.75 0 6.99 0 6.99s0 3.256.411 4.802c.23.856.904 1.53 1.76 1.76 1.578.428 7.81.428 7.81.428s6.248 0 7.81-.411a2.501 2.501 0 0 0 1.759-1.76c.411-1.563.411-4.803.411-4.803s.016-3.256-.411-4.819z"/>
        <path fill="#FFF" d="M7.991 9.983l5.196-2.993L7.99 3.997z"/>
    </g>
</svg>
